# xmcd
#
# Track frame offsets:
# 150
# 13329
# 31268
# 45550
# 64334
# 82252
# 97384
# 107150
# 121396
# 140466
# 155939
#
# Disc length: 2355 seconds
#
#
# Revision: 0
# Processed by: cddbd v1.5.2PL0 Copyright (c) Steve Scherf et al.
# Submitted via: FreeRIP 2.945 
#
DISCID=a409310b
DTITLE=The Black Keys - Attack and Release
DYEAR=2008
DGENRE=Alternative
TTITLE0=All You Ever Wanted
TTITLE1=I Got Mine
TTITLE2=Strange Times
TTITLE3=Psychotic Girl
TTITLE4=Lies
TTITLE5=Remember When (Side A)
TTITLE6=Remember When (Side B)
TTITLE7=Same Old Thing
TTITLE8=So He Won't Break
TTITLE9=Oceans And Streams
TTITLE10=Things Ain't Like They Used To Be
EXTD=
EXTT0=
EXTT1=
EXTT2=
EXTT3=
EXTT4=
EXTT5=
EXTT6=
EXTT7=
EXTT8=
EXTT9=
EXTT10=
PLAYORDER=
